<!-- on how to create an svg with outline text -->
<!-- https://youtu.be/vJNVramny9k?si=twPUFdfY67WDOley -->
<svg width="780" height="133" viewBox="0 0 1380 233" fill="none" xmlns="http://www.w3.org/2000/svg">
<path d="M1379.5 4.27428V3.77428H1379H1334.47H1333.97V4.27428V96.3684H1239.86V4.27428V3.77428H1239.36H1194.82H1194.32V4.27428V229.468V229.968H1194.82H1239.36H1239.86V229.468V134.148H1333.97V229.468V229.968H1334.47H1379H1379.5V229.468V4.27428Z" stroke="white" stroke-opacity="0.4"/>
<path d="M1035.46 224.119L1035.46 224.12C1048.04 229.528 1062.11 232.227 1077.65 232.227C1094.04 232.227 1108.22 229.204 1120.18 223.139L1120.19 223.136C1132.13 216.861 1141.22 208.519 1147.42 198.107C1153.62 187.705 1156.72 176.432 1156.72 164.298C1156.72 150.239 1153.41 138.831 1146.75 130.118C1140.13 121.456 1132.23 114.95 1123.03 110.612C1113.88 106.296 1102.08 101.986 1087.65 97.6803C1077.06 94.4576 1068.81 91.6677 1062.89 89.3102C1057.22 86.7527 1052.4 83.5615 1048.42 79.7405C1044.7 75.7558 1042.84 70.8297 1042.84 64.9282C1042.84 56.4294 1045.35 50.0231 1050.3 45.6253C1055.49 41.2054 1062.36 38.9728 1070.97 38.9728C1080.85 38.9728 1088.67 41.5296 1094.5 46.5932L1094.5 46.5995L1094.51 46.6055C1100.55 51.4653 1103.77 57.6797 1104.18 65.2782L1104.21 65.7509H1104.68H1153.67H1154.21L1154.17 65.2143C1152.68 44.8738 1144.67 29.0358 1130.12 17.7545C1115.81 6.26895 1097.13 0.548004 1074.15 0.548004C1058.82 0.548004 1045.18 3.24662 1033.23 8.65663C1021.27 13.8534 1011.97 21.4405 1005.34 31.4209C998.706 41.4066 995.396 53.1202 995.396 66.5414C995.396 80.8093 998.594 92.3235 1005.04 101.037L1005.04 101.037L1005.05 101.048C1011.66 109.492 1019.46 115.888 1028.44 120.225L1028.45 120.228L1028.46 120.231C1037.6 124.33 1049.39 128.531 1063.83 132.837L1063.83 132.838C1074.43 135.847 1082.67 138.636 1088.58 141.204L1088.59 141.209L1088.6 141.212C1094.69 143.554 1099.71 146.849 1103.68 151.089C1107.61 155.286 1109.59 160.643 1109.59 167.201C1109.59 175.234 1106.68 181.761 1100.86 186.823C1095.04 191.671 1087 194.125 1076.69 194.125C1066.6 194.125 1058.68 191.463 1052.86 186.192C1047.24 180.916 1044.1 173.731 1043.47 164.586L1043.44 164.12H1042.97H995.26H994.752L994.76 164.628C994.974 178.483 998.711 190.522 1005.99 200.722C1013.25 210.911 1023.08 218.709 1035.46 224.119Z" stroke="white" stroke-opacity="0.4"/>
<path d="M806.37 229.968H806.727L806.843 229.63L821.36 187.059H909.074L923.591 229.63L923.706 229.968H924.064H971.142H971.849L971.613 229.301L891.772 3.78476L891.654 3.45163H891.301H839.451H839.098L838.98 3.78476L759.139 229.301L758.902 229.968H759.61H806.37ZM833.788 149.925L865.217 57.7664L896.646 149.925H833.788Z" stroke="white" stroke-opacity="0.4"/>
<path d="M723.775 97.191V96.691H723.275H649.023V41.2312H732.818H733.318V40.7312V3.95163V3.45163H732.818H603.99H603.49V3.95163V229.468V229.968H603.99H732.818H733.318V229.468V192.689V192.189H732.818H649.023V133.503H723.275H723.775V133.003V97.191Z" stroke="white" stroke-opacity="0.4"/>
<path d="M576.185 193.657V193.157H575.685H503.024V4.27428V3.77428H502.524H457.99H457.49V4.27428V229.468V229.968H457.99H575.685H576.185V229.468V193.657Z" stroke="white" stroke-opacity="0.4"/>
<path d="M413.982 229.968H414.482V229.468V3.95163V3.45163H413.982H369.448H368.948V3.95163V157.129L269.032 3.6788L268.884 3.45163H268.613H224.08H223.58V3.95163V229.468V229.968H224.08H268.613H269.113V229.468V76.611L369.03 229.742L369.178 229.968H369.448H413.982Z" stroke="white" stroke-opacity="0.4"/>
<path d="M46.681 4.27428V3.77428H46.181H1.64795H1.14795V4.27428V143.327C1.14795 162.537 5.08536 178.869 12.9865 192.297L12.9883 192.3C20.8824 205.5 31.556 215.461 45.0035 222.173L45.0063 222.174C58.6531 228.878 73.786 232.227 90.396 232.227C107.216 232.227 122.455 228.879 136.102 222.175C149.972 215.466 160.965 205.506 169.073 192.305C177.402 178.875 181.553 162.541 181.553 143.327V4.27428V3.77428H181.053H136.201H135.701V4.27428V143.649C135.701 158.836 131.801 170.416 124.073 178.467C116.346 186.303 105.358 190.253 91.0322 190.253C76.9211 190.253 66.0372 186.304 58.3088 178.467C50.5809 170.416 46.681 158.836 46.681 143.649V4.27428Z" stroke="white" stroke-opacity="0.4"/>
</svg>
