<svg xmlns="http://www.w3.org/2000/svg" xmlns:xlink="http://www.w3.org/1999/xlink" xml:space="preserve" version="1.1" style="shape-rendering:geometricPrecision;text-rendering:geometricPrecision;image-rendering:optimizeQuality;" viewBox="0 0 60000 75000" x="0px" y="0px" fill-rule="evenodd" clip-rule="evenodd"><defs><style type="text/css">
   
    .fil0 {fill:black;fill-rule:nonzero}
   
  </style></defs><g><path class="fil0" d="M1001 27923c-3,-19 -4,-38 -4,-57 0,-221 179,-400 400,-400l4339 0c221,0 400,179 400,400 2,17 4,35 4,53l0 3331 3540 0 -18 -6873 -8235 0c-221,0 -400,-179 -400,-400 0,-221 179,-400 400,-400l8633 0c221,0 400,179 400,400 0,12 -1,23 -1,34l20 7639c0,220 -178,398 -398,398l0 2 -4339 0c-221,0 -400,-179 -400,-400l0 -26c-2,-17 -4,-35 -4,-53l0 -3304 -3536 0 0 7270 11267 0 24 -11559c0,-220 178,-398 398,-398l0 -2 11338 0c221,0 400,179 400,400 0,12 -1,23 -1,34l20 7639c0,220 -178,398 -398,398l0 2 -3999 0c-221,0 -400,-179 -400,-400l0 -26c-2,-17 -4,-35 -4,-53l0 -3304 -3106 0 0 7270 10657 0 7 -11590c0,-220 178,-398 398,-398l12091 31c220,0 398,178 398,398l20 7673c0,220 -178,398 -398,398l0 2 -4339 0c-221,0 -400,-179 -400,-400l0 -26c-2,-17 -4,-35 -4,-53l0 -3304 -3536 0 0 7270 11267 0 24 -11559c0,-220 178,-398 398,-398l0 -2 11338 0c221,0 400,179 400,400 0,12 -1,23 -1,34l20 7639c0,220 -178,398 -398,398l0 2 -3999 0c-221,0 -400,-179 -400,-400l0 -26c-2,-17 -4,-35 -4,-53l0 -3304 -3106 0 0 7270 10347 0 3 -11559c0,-220 178,-398 398,-398 220,0 398,178 398,398l-3 11924c1,12 2,23 2,35 0,221 -179,400 -400,400l-11145 0c-221,0 -400,-179 -400,-400l0 -7990c0,-7 0,-15 1,-22 -3,-19 -4,-38 -4,-57 0,-221 179,-400 400,-400l3909 0c221,0 400,179 400,400 2,17 4,35 4,53l0 3331 3200 0 -18 -6873 -10543 0 -24 11525c1,11 1,23 1,34 0,221 -179,400 -400,400l-12065 0c-221,0 -400,-179 -400,-400l0 -7990c0,-7 0,-15 1,-22 -3,-19 -4,-38 -4,-57 0,-221 179,-400 400,-400l4339 0c221,0 400,179 400,400 2,17 4,35 4,53l0 3331 3540 0 -18 -6875 -11295 -29 -7 11555c1,12 2,23 2,35 0,221 -179,400 -400,400l-11455 0c-221,0 -400,-179 -400,-400l0 -7990c0,-7 0,-15 1,-22 -3,-19 -4,-38 -4,-57 0,-221 179,-400 400,-400l3909 0c221,0 400,179 400,400 2,17 4,35 4,53l0 3331 3200 0 -18 -6873 -10543 0 -24 11525c1,11 1,23 1,34 0,221 -179,400 -400,400l-12065 0c-221,0 -400,-179 -400,-400l0 -7990c0,-7 0,-15 1,-22zm399 10461l57202 0c221,0 400,179 400,400l0 3281c0,221 -179,400 -400,400l-57202 0c-221,0 -400,-179 -400,-400l0 -3281c0,-221 179,-400 400,-400zm56802 800l-56402 0 0 2481 56402 0 0 -2481zm-56802 -21649l57149 0c221,0 400,179 400,400l0 3281c0,221 -179,400 -400,400l-57149 0c-221,0 -400,-179 -400,-400l0 -3281c0,-221 179,-400 400,-400zm56749 800l-56349 0 0 2481 56349 0 0 -2481z"/></g><text x="0" y="60015" fill="#000000" font-size="5px" font-weight="bold" font-family="'Helvetica Neue', Helvetica, Arial-Unicode, Arial, Sans-serif">Created by Olena Panasovska</text><text x="0" y="60020" fill="#000000" font-size="5px" font-weight="bold" font-family="'Helvetica Neue', Helvetica, Arial-Unicode, Arial, Sans-serif">from the Noun Project</text></svg>